<?xml version="1.0" encoding="UTF-8" standalone="no"?>
<!DOCTYPE svg PUBLIC "-//W3C//DTD SVG 1.1//EN"
 "http://www.w3.org/Graphics/SVG/1.1/DTD/svg11.dtd">
<!-- Generated by graphviz version 2.40.1 (20161225.0304)
 -->
<!-- Title: Workflow Pages: 1 -->
<svg width="834pt" height="559pt"
 viewBox="0.00 0.00 834.13 559.00" xmlns="http://www.w3.org/2000/svg" xmlns:xlink="http://www.w3.org/1999/xlink">
<g id="graph0" class="graph" transform="scale(1 1) rotate(0) translate(4 555)">
<title>Workflow</title>
<polygon fill="#ffffff" stroke="transparent" points="-4,4 -4,-555 830.1318,-555 830.1318,4 -4,4"/>
<text text-anchor="middle" x="413.0659" y="-532.6" font-family="Courier,monospace" font-size="18.00" fill="#000000">RetroProv_analysis_of_hydrocarbons_following_the_Exxon_Valdez_oil_spill_GOA</text>
<g id="clust1" class="cluster">
<title>cluster_workflow_box_outer</title>
<polygon fill="none" stroke="#000000" stroke-width="2" points="132.0659,-62 132.0659,-463 694.0659,-463 694.0659,-62 132.0659,-62"/>
</g>
<g id="clust2" class="cluster">
<title>cluster_workflow_box_inner</title>
<polygon fill="none" stroke="#ffffff" stroke-width="2" points="140.0659,-70 140.0659,-455 686.0659,-455 686.0659,-70 140.0659,-70"/>
</g>
<g id="clust3" class="cluster">
<title>cluster_input_ports_group_outer</title>
<polygon fill="none" stroke="#ffffff" points="383.0659,-471 383.0659,-517 525.0659,-517 525.0659,-471 383.0659,-471"/>
</g>
<g id="clust4" class="cluster">
<title>cluster_input_ports_group_inner</title>
<polygon fill="none" stroke="#ffffff" points="391.0659,-479 391.0659,-509 517.0659,-509 517.0659,-479 391.0659,-479"/>
</g>
<g id="clust5" class="cluster">
<title>cluster_output_ports_group_outer</title>
<polygon fill="none" stroke="#ffffff" points="401.0659,-8 401.0659,-54 479.0659,-54 479.0659,-8 401.0659,-8"/>
</g>
<g id="clust6" class="cluster">
<title>cluster_output_ports_group_inner</title>
<polygon fill="none" stroke="#ffffff" points="409.0659,-16 409.0659,-46 471.0659,-46 471.0659,-16 409.0659,-16"/>
</g>
<!-- Data_Merging -->
<g id="node1" class="node">
<title>Data_Merging</title>
<polygon fill="#ccffcc" stroke="#000000" points="194.6304,-321.5 194.6304,-365.5 647.5015,-365.5 647.5015,-321.5 194.6304,-321.5"/>
<text text-anchor="middle" x="421.0659" y="-350.3" font-family="Courier,monospace" font-size="14.00" fill="#000000">Data_Merging</text>
<polyline fill="none" stroke="#000000" points="194.6304,-343.5 647.5015,-343.5 "/>
<text text-anchor="middle" x="421.0659" y="-328.3" font-family="Courier,monospace" font-size="14.00" fill="#000000">Using Total_PAH_and_Alkanes_GoA_Hydrocarbons_Clean.R</text>
</g>
<!-- TotalAromAlk5 -->
<g id="node7" class="node">
<title>TotalAromAlk5</title>
<path fill="#ffffcc" stroke="#000000" d="M306.7974,-240.5C306.7974,-240.5 535.3345,-240.5 535.3345,-240.5 541.3345,-240.5 547.3345,-246.5 547.3345,-252.5 547.3345,-252.5 547.3345,-272.5 547.3345,-272.5 547.3345,-278.5 541.3345,-284.5 535.3345,-284.5 535.3345,-284.5 306.7974,-284.5 306.7974,-284.5 300.7974,-284.5 294.7974,-278.5 294.7974,-272.5 294.7974,-272.5 294.7974,-252.5 294.7974,-252.5 294.7974,-246.5 300.7974,-240.5 306.7974,-240.5"/>
<text text-anchor="middle" x="421.0659" y="-269.3" font-family="Helvetica,sans-Serif" font-size="14.00" fill="#000000">TotalAromAlk5</text>
<polyline fill="none" stroke="#000000" points="294.7974,-262.5 547.3345,-262.5 "/>
<text text-anchor="middle" x="421.0659" y="-247.3" font-family="Helvetica,sans-Serif" font-size="14.00" fill="#000000">file:Total_Aromatic_Alkanes_PWS.csv</text>
</g>
<!-- Data_Merging&#45;&gt;TotalAromAlk5 -->
<g id="edge1" class="edge">
<title>Data_Merging&#45;&gt;TotalAromAlk5</title>
<path fill="none" stroke="#000000" d="M421.0659,-321.3664C421.0659,-313.1516 421.0659,-303.6579 421.0659,-294.7252"/>
<polygon fill="#000000" stroke="#000000" points="424.566,-294.6068 421.0659,-284.6068 417.566,-294.6069 424.566,-294.6068"/>
</g>
<!-- Gen_Imges -->
<g id="node2" class="node">
<title>Gen_Imges</title>
<polygon fill="#ccffcc" stroke="#000000" points="341.6543,-159.5 341.6543,-203.5 500.4775,-203.5 500.4775,-159.5 341.6543,-159.5"/>
<text text-anchor="middle" x="421.0659" y="-188.3" font-family="Courier,monospace" font-size="14.00" fill="#000000">Gen_Imges</text>
<polyline fill="none" stroke="#000000" points="341.6543,-181.5 500.4775,-181.5 "/>
<text text-anchor="middle" x="421.0659" y="-166.3" font-family="Courier,monospace" font-size="14.00" fill="#000000">Using hdbcSites.R</text>
</g>
<!-- sampleLoc -->
<g id="node8" class="node">
<title>sampleLoc</title>
<path fill="#ffffcc" stroke="#000000" d="M268.8491,-78.5C268.8491,-78.5 417.2827,-78.5 417.2827,-78.5 423.2827,-78.5 429.2827,-84.5 429.2827,-90.5 429.2827,-90.5 429.2827,-110.5 429.2827,-110.5 429.2827,-116.5 423.2827,-122.5 417.2827,-122.5 417.2827,-122.5 268.8491,-122.5 268.8491,-122.5 262.8491,-122.5 256.8491,-116.5 256.8491,-110.5 256.8491,-110.5 256.8491,-90.5 256.8491,-90.5 256.8491,-84.5 262.8491,-78.5 268.8491,-78.5"/>
<text text-anchor="middle" x="343.0659" y="-107.3" font-family="Helvetica,sans-Serif" font-size="14.00" fill="#000000">sampleLoc</text>
<polyline fill="none" stroke="#000000" points="256.8491,-100.5 429.2827,-100.5 "/>
<text text-anchor="middle" x="343.0659" y="-85.3" font-family="Helvetica,sans-Serif" font-size="14.00" fill="#000000">file:hcdbSampleLocs.png</text>
</g>
<!-- Gen_Imges&#45;&gt;sampleLoc -->
<g id="edge6" class="edge">
<title>Gen_Imges&#45;&gt;sampleLoc</title>
<path fill="none" stroke="#000000" d="M399.7521,-159.3664C390.9817,-150.2587 380.6975,-139.5789 371.314,-129.8346"/>
<polygon fill="#000000" stroke="#000000" points="373.8116,-127.3823 364.354,-122.6068 368.7693,-132.2378 373.8116,-127.3823"/>
</g>
<!-- samplesGOA -->
<g id="node9" class="node">
<title>samplesGOA</title>
<path fill="#ffffcc" stroke="#000000" d="M459.5767,-78.5C459.5767,-78.5 616.5552,-78.5 616.5552,-78.5 622.5552,-78.5 628.5552,-84.5 628.5552,-90.5 628.5552,-90.5 628.5552,-110.5 628.5552,-110.5 628.5552,-116.5 622.5552,-122.5 616.5552,-122.5 616.5552,-122.5 459.5767,-122.5 459.5767,-122.5 453.5767,-122.5 447.5767,-116.5 447.5767,-110.5 447.5767,-110.5 447.5767,-90.5 447.5767,-90.5 447.5767,-84.5 453.5767,-78.5 459.5767,-78.5"/>
<text text-anchor="middle" x="538.0659" y="-107.3" font-family="Helvetica,sans-Serif" font-size="14.00" fill="#000000">samplesGOA</text>
<polyline fill="none" stroke="#000000" points="447.5767,-100.5 628.5552,-100.5 "/>
<text text-anchor="middle" x="538.0659" y="-85.3" font-family="Helvetica,sans-Serif" font-size="14.00" fill="#000000">file:hcdbSamplesGOA.png</text>
</g>
<!-- Gen_Imges&#45;&gt;samplesGOA -->
<g id="edge7" class="edge">
<title>Gen_Imges&#45;&gt;samplesGOA</title>
<path fill="none" stroke="#000000" d="M453.0367,-159.3664C466.8371,-149.8123 483.1364,-138.5281 497.7535,-128.4086"/>
<polygon fill="#000000" stroke="#000000" points="499.9041,-131.1767 506.1338,-122.6068 495.9196,-125.4213 499.9041,-131.1767"/>
</g>
<!-- PAH -->
<g id="node3" class="node">
<title>PAH</title>
<path fill="#ffffcc" stroke="#000000" d="M599.8511,-402.5C599.8511,-402.5 666.2808,-402.5 666.2808,-402.5 672.2808,-402.5 678.2808,-408.5 678.2808,-414.5 678.2808,-414.5 678.2808,-434.5 678.2808,-434.5 678.2808,-440.5 672.2808,-446.5 666.2808,-446.5 666.2808,-446.5 599.8511,-446.5 599.8511,-446.5 593.8511,-446.5 587.8511,-440.5 587.8511,-434.5 587.8511,-434.5 587.8511,-414.5 587.8511,-414.5 587.8511,-408.5 593.8511,-402.5 599.8511,-402.5"/>
<text text-anchor="middle" x="633.0659" y="-431.3" font-family="Helvetica,sans-Serif" font-size="14.00" fill="#000000">PAH</text>
<polyline fill="none" stroke="#000000" points="587.8511,-424.5 678.2808,-424.5 "/>
<text text-anchor="middle" x="633.0659" y="-409.3" font-family="Helvetica,sans-Serif" font-size="14.00" fill="#000000">file:PAH.csv</text>
</g>
<!-- PAH&#45;&gt;Data_Merging -->
<g id="edge2" class="edge">
<title>PAH&#45;&gt;Data_Merging</title>
<path fill="none" stroke="#000000" d="M587.7464,-405.4618C584.8139,-404.2779 581.9014,-403.1151 579.0659,-402 550.6982,-390.8436 519.2434,-379.076 491.9158,-369.0436"/>
<polygon fill="#000000" stroke="#000000" points="493.0275,-365.7234 482.4337,-365.5712 490.6203,-372.2965 493.0275,-365.7234"/>
</g>
<!-- Alk -->
<g id="node4" class="node">
<title>Alk</title>
<path fill="#ffffcc" stroke="#000000" d="M476.3247,-402.5C476.3247,-402.5 557.8071,-402.5 557.8071,-402.5 563.8071,-402.5 569.8071,-408.5 569.8071,-414.5 569.8071,-414.5 569.8071,-434.5 569.8071,-434.5 569.8071,-440.5 563.8071,-446.5 557.8071,-446.5 557.8071,-446.5 476.3247,-446.5 476.3247,-446.5 470.3247,-446.5 464.3247,-440.5 464.3247,-434.5 464.3247,-434.5 464.3247,-414.5 464.3247,-414.5 464.3247,-408.5 470.3247,-402.5 476.3247,-402.5"/>
<text text-anchor="middle" x="517.0659" y="-431.3" font-family="Helvetica,sans-Serif" font-size="14.00" fill="#000000">Alk</text>
<polyline fill="none" stroke="#000000" points="464.3247,-424.5 569.8071,-424.5 "/>
<text text-anchor="middle" x="517.0659" y="-409.3" font-family="Helvetica,sans-Serif" font-size="14.00" fill="#000000">file:Alkane.csv</text>
</g>
<!-- Alk&#45;&gt;Data_Merging -->
<g id="edge3" class="edge">
<title>Alk&#45;&gt;Data_Merging</title>
<path fill="none" stroke="#000000" d="M490.8335,-402.3664C479.8276,-393.0802 466.8846,-382.1595 455.1548,-372.2625"/>
<polygon fill="#000000" stroke="#000000" points="457.1666,-369.3806 447.2666,-365.6068 452.6525,-374.7306 457.1666,-369.3806"/>
</g>
<!-- Samp -->
<g id="node5" class="node">
<title>Samp</title>
<path fill="#ffffcc" stroke="#000000" d="M347.9937,-402.5C347.9937,-402.5 434.1382,-402.5 434.1382,-402.5 440.1382,-402.5 446.1382,-408.5 446.1382,-414.5 446.1382,-414.5 446.1382,-434.5 446.1382,-434.5 446.1382,-440.5 440.1382,-446.5 434.1382,-446.5 434.1382,-446.5 347.9937,-446.5 347.9937,-446.5 341.9937,-446.5 335.9937,-440.5 335.9937,-434.5 335.9937,-434.5 335.9937,-414.5 335.9937,-414.5 335.9937,-408.5 341.9937,-402.5 347.9937,-402.5"/>
<text text-anchor="middle" x="391.0659" y="-431.3" font-family="Helvetica,sans-Serif" font-size="14.00" fill="#000000">Samp</text>
<polyline fill="none" stroke="#000000" points="335.9937,-424.5 446.1382,-424.5 "/>
<text text-anchor="middle" x="391.0659" y="-409.3" font-family="Helvetica,sans-Serif" font-size="14.00" fill="#000000">file:Sample.csv</text>
</g>
<!-- Samp&#45;&gt;Data_Merging -->
<g id="edge4" class="edge">
<title>Samp&#45;&gt;Data_Merging</title>
<path fill="none" stroke="#000000" d="M399.2635,-402.3664C402.3722,-393.9731 405.9754,-384.2445 409.3461,-375.1434"/>
<polygon fill="#000000" stroke="#000000" points="412.6871,-376.2 412.8782,-365.6068 406.1229,-373.7687 412.6871,-376.2"/>
</g>
<!-- Non_EVOS -->
<g id="node6" class="node">
<title>Non_EVOS</title>
<path fill="#ffffcc" stroke="#000000" d="M160.042,-402.5C160.042,-402.5 306.0898,-402.5 306.0898,-402.5 312.0898,-402.5 318.0898,-408.5 318.0898,-414.5 318.0898,-414.5 318.0898,-434.5 318.0898,-434.5 318.0898,-440.5 312.0898,-446.5 306.0898,-446.5 306.0898,-446.5 160.042,-446.5 160.042,-446.5 154.042,-446.5 148.042,-440.5 148.042,-434.5 148.042,-434.5 148.042,-414.5 148.042,-414.5 148.042,-408.5 154.042,-402.5 160.042,-402.5"/>
<text text-anchor="middle" x="233.0659" y="-431.3" font-family="Helvetica,sans-Serif" font-size="14.00" fill="#000000">Non_EVOS</text>
<polyline fill="none" stroke="#000000" points="148.042,-424.5 318.0898,-424.5 "/>
<text text-anchor="middle" x="233.0659" y="-409.3" font-family="Helvetica,sans-Serif" font-size="14.00" fill="#000000">file:Non&#45;EVOS_SINs.csv</text>
</g>
<!-- Non_EVOS&#45;&gt;Data_Merging -->
<g id="edge5" class="edge">
<title>Non_EVOS&#45;&gt;Data_Merging</title>
<path fill="none" stroke="#000000" d="M284.4377,-402.3664C307.9598,-392.2319 335.9999,-380.1508 360.5394,-369.5779"/>
<polygon fill="#000000" stroke="#000000" points="361.9573,-372.7781 369.7562,-365.6068 359.1874,-366.3494 361.9573,-372.7781"/>
</g>
<!-- TotalAromAlk5&#45;&gt;Gen_Imges -->
<g id="edge8" class="edge">
<title>TotalAromAlk5&#45;&gt;Gen_Imges</title>
<path fill="none" stroke="#000000" d="M421.0659,-240.3664C421.0659,-232.1516 421.0659,-222.6579 421.0659,-213.7252"/>
<polygon fill="#000000" stroke="#000000" points="424.566,-213.6068 421.0659,-203.6068 417.566,-213.6069 424.566,-213.6068"/>
</g>
<!-- sampleLoc_output_port -->
<g id="node14" class="node">
<title>sampleLoc_output_port</title>
<ellipse fill="#ffffff" stroke="#000000" cx="424.0659" cy="-31" rx="7" ry="7"/>
</g>
<!-- sampleLoc&#45;&gt;sampleLoc_output_port -->
<g id="edge13" class="edge">
<title>sampleLoc&#45;&gt;sampleLoc_output_port</title>
<path fill="none" stroke="#000000" d="M369.1407,-78.1272C383.0078,-66.2289 399.4703,-52.1036 410.7324,-42.4405"/>
<polygon fill="#000000" stroke="#000000" points="413.1903,-44.9434 418.5005,-35.7753 408.632,-39.6309 413.1903,-44.9434"/>
</g>
<!-- samplesGOA_output_port -->
<g id="node15" class="node">
<title>samplesGOA_output_port</title>
<ellipse fill="#ffffff" stroke="#000000" cx="456.0659" cy="-31" rx="7" ry="7"/>
</g>
<!-- samplesGOA&#45;&gt;samplesGOA_output_port -->
<g id="edge14" class="edge">
<title>samplesGOA&#45;&gt;samplesGOA_output_port</title>
<path fill="none" stroke="#000000" d="M511.6692,-78.1272C497.6309,-66.2289 480.9652,-52.1036 469.5641,-42.4405"/>
<polygon fill="#000000" stroke="#000000" points="471.5917,-39.571 461.7001,-35.7753 467.0657,-44.911 471.5917,-39.571"/>
</g>
<!-- PAH_input_port -->
<g id="node10" class="node">
<title>PAH_input_port</title>
<ellipse fill="#ffffff" stroke="#000000" cx="502.0659" cy="-494" rx="7" ry="7"/>
</g>
<!-- PAH_input_port&#45;&gt;PAH -->
<g id="edge9" class="edge">
<title>PAH_input_port&#45;&gt;PAH</title>
<path fill="none" stroke="#000000" d="M509.1128,-491.7889C522.9694,-487.3074 554.5456,-476.4292 579.0659,-463 584.7652,-459.8786 590.5761,-456.2623 596.1724,-452.521"/>
<polygon fill="#000000" stroke="#000000" points="598.5102,-455.1597 604.743,-446.5922 594.5278,-449.4029 598.5102,-455.1597"/>
</g>
<!-- Alk_input_port -->
<g id="node11" class="node">
<title>Alk_input_port</title>
<ellipse fill="#ffffff" stroke="#000000" cx="470.0659" cy="-494" rx="7" ry="7"/>
</g>
<!-- Alk_input_port&#45;&gt;Alk -->
<g id="edge10" class="edge">
<title>Alk_input_port&#45;&gt;Alk</title>
<path fill="none" stroke="#000000" d="M474.0731,-488.0745C479.0512,-480.7132 487.9161,-467.6045 496.3081,-455.1951"/>
<polygon fill="#000000" stroke="#000000" points="499.2861,-457.0393 501.9887,-446.795 493.4875,-453.1179 499.2861,-457.0393"/>
</g>
<!-- Samp_input_port -->
<g id="node12" class="node">
<title>Samp_input_port</title>
<ellipse fill="#ffffff" stroke="#000000" cx="438.0659" cy="-494" rx="7" ry="7"/>
</g>
<!-- Samp_input_port&#45;&gt;Samp -->
<g id="edge11" class="edge">
<title>Samp_input_port&#45;&gt;Samp</title>
<path fill="none" stroke="#000000" d="M434.0587,-488.0745C429.0806,-480.7132 420.2157,-467.6045 411.8238,-455.1951"/>
<polygon fill="#000000" stroke="#000000" points="414.6443,-453.1179 406.1431,-446.795 408.8457,-457.0393 414.6443,-453.1179"/>
</g>
<!-- Non_EVOS_input_port -->
<g id="node13" class="node">
<title>Non_EVOS_input_port</title>
<ellipse fill="#ffffff" stroke="#000000" cx="406.0659" cy="-494" rx="7" ry="7"/>
</g>
<!-- Non_EVOS_input_port&#45;&gt;Non_EVOS -->
<g id="edge12" class="edge">
<title>Non_EVOS_input_port&#45;&gt;Non_EVOS</title>
<path fill="none" stroke="#000000" d="M399.4983,-491.4607C385.9383,-486.2093 353.8691,-473.7471 327.0659,-463 317.0403,-458.9801 306.4311,-454.6798 296.0915,-450.4635"/>
<polygon fill="#000000" stroke="#000000" points="297.2772,-447.1672 286.6962,-446.6255 294.63,-453.6473 297.2772,-447.1672"/>
</g>
</g>
</svg>
